<svg xmlns="http://www.w3.org/2000/svg" width="400" height="240" viewBox="0 0 400 240">
  <defs>
    <linearGradient id="bg" x1="0%" y1="0%" x2="100%" y2="100%">
      <stop offset="0%" style="stop-color:#eef2ff"/>
      <stop offset="100%" style="stop-color:#e0e7ff"/>
    </linearGradient>
    <linearGradient id="icon" x1="0%" y1="0%" x2="100%" y2="100%">
      <stop offset="0%" style="stop-color:#6366f1"/>
      <stop offset="100%" style="stop-color:#8b5cf6"/>
    </linearGradient>
  </defs>
  <rect width="400" height="240" fill="url(#bg)" rx="0"/>
  <g transform="translate(200,110)">
    <rect x="-32" y="-32" width="64" height="64" rx="14" fill="url(#icon)" opacity="0.12"/>
    <path d="M-14-14h28a4 4 0 014 4v20a4 4 0 01-4 4h-28a4 4 0 01-4-4v-20a4 4 0 014-4z" fill="none" stroke="url(#icon)" stroke-width="2"/>
    <circle cx="-6" cy="-4" r="3.5" fill="none" stroke="url(#icon)" stroke-width="1.8"/>
    <path d="M-18 10l8-8 6 6 4-4 10 10H-18z" fill="url(#icon)" opacity="0.25"/>
  </g>
  <text x="200" y="160" text-anchor="middle" font-family="-apple-system,BlinkMacSystemFont,Segoe UI,Roboto,sans-serif" font-size="13" font-weight="500" fill="#94a3b8">暂无封面</text>
</svg>
